<svg width="22" height="21" viewBox="0 0 22 21" fill="none" xmlns="http://www.w3.org/2000/svg">
<path fill-rule="evenodd" clip-rule="evenodd" d="M2.34158 4.97881C2.0711 4.89093 1.78644 5.06695 1.74422 5.34821L1.23758 8.723C1.16501 9.20643 1.45257 9.67146 1.91748 9.82252L19.1768 15.4304C19.9832 15.6924 20.8494 15.2511 21.1115 14.4446C21.3839 13.6063 20.8961 12.7113 20.0439 12.4858L14.7323 11.0804L13.4042 1.70726C13.3491 1.31835 13.0773 0.9948 12.7037 0.873422C12.0777 0.670029 11.4245 1.09884 11.3621 1.75407L10.602 9.7384L3.34577 7.79585L2.64245 5.29207C2.60084 5.14392 2.48794 5.02637 2.34158 4.97881ZM21.1776 18.4521H0.647644V20.0313H21.1776V18.4521Z" fill="#6E7491"/>
</svg>
